{"accessors":[{"bufferView":0,"byteOffset":0,"componentType":5126,"count":24,"max":[0.5,0.5,0.5],"min":[-0.5,-0.5,-0.5],"normalized":false,"type":"VEC3"},{"bufferView":1,"byteOffset":0,"componentType":5126,"count":24,"max":[1,0,1,1],"min":[-1,-0.000015,-1,1],"normalized":false,"type":"VEC4"},{"bufferView":2,"byteOffset":0,"componentType":5126,"count":24,"max":[1,1,1],"min":[-1,-1,-1],"normalized":false,"type":"VEC3"},{"bufferView":3,"byteOffset":0,"componentType":5126,"count":24,"max":[1,1],"min":[0,0],"normalized":false,"type":"VEC2"},{"bufferView":4,"byteOffset":0,"componentType":5125,"count":36,"max":[23],"min":[0],"normalized":false,"type":"SCALAR"},{"bufferView":5,"byteOffset":0,"componentType":5126,"count":24,"max":[0.5,0.5,0.5],"min":[-0.5,-0.5,-0.5],"normalized":false,"type":"VEC3"},{"bufferView":6,"byteOffset":0,"componentType":5126,"count":24,"max":[1,0,1,1],"min":[-1,-0.000015,-1,1],"normalized":false,"type":"VEC4"},{"bufferView":7,"byteOffset":0,"componentType":5126,"count":24,"max":[1,1,1],"min":[-1,-1,-1],"normalized":false,"type":"VEC3"},{"bufferView":8,"byteOffset":0,"componentType":5126,"count":24,"max":[1,1],"min":[0,0],"normalized":false,"type":"VEC2"},{"bufferView":9,"byteOffset":0,"componentType":5125,"count":36,"max":[23],"min":[0],"normalized":false,"type":"SCALAR"},{"bufferView":10,"byteOffset":0,"componentType":5126,"count":24,"max":[0.1,2,2],"min":[-0.1,-2,-2],"normalized":false,"type":"VEC3"},{"bufferView":11,"byteOffset":0,"componentType":5126,"count":24,"max":[1,0,1,1],"min":[-1,-0.000015,-1,1],"normalized":false,"type":"VEC4"},{"bufferView":12,"byteOffset":0,"componentType":5126,"count":24,"max":[1,1,1],"min":[-1,-1,-1],"normalized":false,"type":"VEC3"},{"bufferView":13,"byteOffset":0,"componentType":5126,"count":24,"max":[1,1],"min":[0,0],"normalized":false,"type":"VEC2"},{"bufferView":14,"byteOffset":0,"componentType":5125,"count":36,"max":[23],"min":[0],"normalized":false,"type":"SCALAR"},{"bufferView":15,"byteOffset":0,"componentType":5126,"count":24,"max":[0.1,2,2],"min":[-0.1,-2,-2],"normalized":false,"type":"VEC3"},{"bufferView":16,"byteOffset":0,"componentType":5126,"count":24,"max":[1,0,1,1],"min":[-1,-0.000015,-1,1],"normalized":false,"type":"VEC4"},{"bufferView":17,"byteOffset":0,"componentType":5126,"count":24,"max":[1,1,1],"min":[-1,-1,-1],"normalized":false,"type":"VEC3"},{"bufferView":18,"byteOffset":0,"componentType":5126,"count":24,"max":[1,1],"min":[0,0],"normalized":false,"type":"VEC2"},{"bufferView":19,"byteOffset":0,"componentType":5125,"count":36,"max":[23],"min":[0],"normalized":false,"type":"SCALAR"},{"bufferView":20,"byteOffset":0,"componentType":5126,"count":24,"max":[0.1,0.75,1],"min":[-0.1,-0.75,-1],"normalized":false,"type":"VEC3"},{"bufferView":21,"byteOffset":0,"componentType":5126,"count":24,"max":[1,0,1,1],"min":[-1,-0.000015,-1,1],"normalized":false,"type":"VEC4"},{"bufferView":22,"byteOffset":0,"componentType":5126,"count":24,"max":[1,1,1],"min":[-1,-1,-1],"normalized":false,"type":"VEC3"},{"bufferView":23,"byteOffset":0,"componentType":5126,"count":24,"max":[1,1],"min":[0,0],"normalized":false,"type":"VEC2"},{"bufferView":24,"byteOffset":0,"componentType":5125,"count":36,"max":[23],"min":[0],"normalized":false,"type":"SCALAR"},{"bufferView":25,"byteOffset":0,"componentType":5126,"count":5489,"max":[0.860129,0.176034,2],"min":[-0.860129,-0.176034,-2],"normalized":false,"type":"VEC3"},{"bufferView":26,"byteOffset":0,"componentType":5126,"count":5489,"max":[1,1,0.972426,1],"min":[-1,-1,-0.973451,-1],"normalized":false,"type":"VEC4"},{"bufferView":27,"byteOffset":0,"componentType":5126,"count":5489,"max":[1,1,1],"min":[-1,-1,-1],"normalized":false,"type":"VEC3"},{"bufferView":28,"byteOffset":0,"componentType":5126,"count":5489,"max":[0.875,1],"min":[0.125,0],"normalized":false,"type":"VEC2"},{"bufferView":29,"byteOffset":0,"componentType":5125,"count":7998,"max":[5331],"min":[0],"normalized":false,"type":"SCALAR"},{"bufferView":30,"byteOffset":0,"componentType":5126,"count":488,"max":[0.728165,0.087533,1.868036],"min":[-0.728165,0.083307,-1.868036],"normalized":false,"type":"VEC3"},{"bufferView":31,"byteOffset":0,"componentType":5126,"count":488,"max":[-0.74947,0.661516,0.333886,1],"min":[-1,-0.662035,-0.335383,1],"normalized":false,"type":"VEC4"},{"bufferView":32,"byteOffset":0,"componentType":5126,"count":488,"max":[0.649442,1,0.649467],"min":[-0.649467,0.621441,-0.64941],"normalized":false,"type":"VEC3"},{"bufferView":33,"byteOffset":0,"componentType":5126,"count":488,"max":[0.856248,0.491935],"min":[0.643752,0.258065],"normalized":false,"type":"VEC2"},{"bufferView":34,"byteOffset":0,"componentType":5125,"count":726,"max":[483],"min":[0],"normalized":false,"type":"SCALAR"},{"bufferView":35,"byteOffset":0,"componentType":5126,"count":5489,"max":[0.860129,0.176034,2],"min":[-0.860129,-0.176034,-2],"normalized":false,"type":"VEC3"},{"bufferView":36,"byteOffset":0,"componentType":5126,"count":5489,"max":[1,1,0.972426,1],"min":[-1,-1,-0.973451,-1],"normalized":false,"type":"VEC4"},{"bufferView":37,"byteOffset":0,"componentType":5126,"count":5489,"max":[1,1,1],"min":[-1,-1,-1],"normalized":false,"type":"VEC3"},{"bufferView":38,"byteOffset":0,"componentType":5126,"count":5489,"max":[0.875,1],"min":[0.125,0],"normalized":false,"type":"VEC2"},{"bufferView":39,"byteOffset":0,"componentType":5125,"count":7998,"max":[5331],"min":[0],"normalized":false,"type":"SCALAR"},{"bufferView":40,"byteOffset":0,"componentType":5126,"count":488,"max":[0.728165,0.087533,1.868036],"min":[-0.728165,0.083307,-1.868036],"normalized":false,"type":"VEC3"},{"bufferView":41,"byteOffset":0,"componentType":5126,"count":488,"max":[-0.74947,0.661516,0.333886,1],"min":[-1,-0.662035,-0.335383,1],"normalized":false,"type":"VEC4"},{"bufferView":42,"byteOffset":0,"componentType":5126,"count":488,"max":[0.649442,1,0.649467],"min":[-0.649467,0.621441,-0.64941],"normalized":false,"type":"VEC3"},{"bufferView":43,"byteOffset":0,"componentType":5126,"count":488,"max":[0.856248,0.491935],"min":[0.643752,0.258065],"normalized":false,"type":"VEC2"},{"bufferView":44,"byteOffset":0,"componentType":5125,"count":726,"max":[483],"min":[0],"normalized":false,"type":"SCALAR"}],"asset":{"generator":"Godot Engine v4.0.2.stable.official@7a0977ce2c558fe6219f0a14f8bd4d05aea8f019","version":"2.0"},"bufferViews":[{"buffer":0,"byteLength":288,"byteOffset":0},{"buffer":0,"byteLength":384,"byteOffset":288},{"buffer":0,"byteLength":288,"byteOffset":672},{"buffer":0,"byteLength":192,"byteOffset":960},{"buffer":0,"byteLength":144,"byteOffset":1152},{"buffer":0,"byteLength":288,"byteOffset":1296},{"buffer":0,"byteLength":384,"byteOffset":1584},{"buffer":0,"byteLength":288,"byteOffset":1968},{"buffer":0,"byteLength":192,"byteOffset":2256},{"buffer":0,"byteLength":144,"byteOffset":2448},{"buffer":0,"byteLength":288,"byteOffset":2592},{"buffer":0,"byteLength":384,"byteOffset":2880},{"buffer":0,"byteLength":288,"byteOffset":3264},{"buffer":0,"byteLength":192,"byteOffset":3552},{"buffer":0,"byteLength":144,"byteOffset":3744},{"buffer":0,"byteLength":288,"byteOffset":3888},{"buffer":0,"byteLength":384,"byteOffset":4176},{"buffer":0,"byteLength":288,"byteOffset":4560},{"buffer":0,"byteLength":192,"byteOffset":4848},{"buffer":0,"byteLength":144,"byteOffset":5040},{"buffer":0,"byteLength":288,"byteOffset":5184},{"buffer":0,"byteLength":384,"byteOffset":5472},{"buffer":0,"byteLength":288,"byteOffset":5856},{"buffer":0,"byteLength":192,"byteOffset":6144},{"buffer":0,"byteLength":144,"byteOffset":6336},{"buffer":0,"byteLength":65868,"byteOffset":6480},{"buffer":0,"byteLength":87824,"byteOffset":72348},{"buffer":0,"byteLength":65868,"byteOffset":160172},{"buffer":0,"byteLength":43912,"byteOffset":226040},{"buffer":0,"byteLength":31992,"byteOffset":269952},{"buffer":0,"byteLength":5856,"byteOffset":301944},{"buffer":0,"byteLength":7808,"byteOffset":307800},{"buffer":0,"byteLength":5856,"byteOffset":315608},{"buffer":0,"byteLength":3904,"byteOffset":321464},{"buffer":0,"byteLength":2904,"byteOffset":325368},{"buffer":0,"byteLength":65868,"byteOffset":328272},{"buffer":0,"byteLength":87824,"byteOffset":394140},{"buffer":0,"byteLength":65868,"byteOffset":481964},{"buffer":0,"byteLength":43912,"byteOffset":547832},{"buffer":0,"byteLength":31992,"byteOffset":591744},{"buffer":0,"byteLength":5856,"byteOffset":623736},{"buffer":0,"byteLength":7808,"byteOffset":629592},{"buffer":0,"byteLength":5856,"byteOffset":637400},{"buffer":0,"byteLength":3904,"byteOffset":643256},{"buffer":0,"byteLength":2904,"byteOffset":647160}],"buffers":[{"byteLength":650064,"uri":"room_door0.bin"}],"extensions":{"KHR_lights_punctual":{"lights":[{"color":[1,1,1],"intensity":10,"range":5,"spot":{"innerConeAngle":0.642598509788513,"outerConeAngle":0.785398185253143},"type":"spot"},{"color":[1,1,1],"intensity":1,"range":20,"type":"point"},{"color":[1,1,1],"intensity":10,"range":5,"spot":{"innerConeAngle":0.642598509788513,"outerConeAngle":0.785398185253143},"type":"spot"},{"color":[1,1,1],"intensity":1,"range":20,"type":"point"}]}},"extensionsRequired":["KHR_texture_transform"],"extensionsUsed":["KHR_lights_punctual","KHR_texture_transform"],"images":[{"uri":"textures%2F_albedo.png"},{"uri":"textures%2F_albedo002.png"},{"uri":"textures%2F_albedo003.png"}],"materials":[{"extensions":{},"pbrMetallicRoughness":{"baseColorFactor":[0.99999988079071,0.99999988079071,0.99999988079071,1],"baseColorTexture":{"extensions":{"KHR_texture_transform":{"scale":[10,10]}},"index":0},"metallicFactor":0,"roughnessFactor":1}},{"extensions":{},"pbrMetallicRoughness":{"baseColorFactor":[0.99999988079071,0.99999988079071,0.99999988079071,1],"baseColorTexture":{"extensions":{"KHR_texture_transform":{"scale":[0.140000000596046,0.140000000596046]}},"index":1},"metallicFactor":0,"roughnessFactor":1}},{"extensions":{},"pbrMetallicRoughness":{"baseColorFactor":[0.99999988079071,0.99999988079071,0.99999988079071,1],"baseColorTexture":{"extensions":{"KHR_texture_transform":{"scale":[2,2]}},"index":2},"metallicFactor":0,"roughnessFactor":1}},{"extensions":{},"pbrMetallicRoughness":{"baseColorFactor":[0.00060705398209393,0.00060705398209393,0.00060705398209393,1],"metallicFactor":0,"roughnessFactor":1}},{"emissiveFactor":[0.927599906921387,0.927599906921387,0.927599906921387],"extensions":{},"pbrMetallicRoughness":{"baseColorFactor":[0.99999988079071,0.99999988079071,0.99999988079071,1],"metallicFactor":0,"roughnessFactor":1}}],"meshes":[{"extras":{"targetNames":[]},"primitives":[{"attributes":{"NORMAL":2,"POSITION":0,"TANGENT":1,"TEXCOORD_0":3},"indices":4,"material":0,"mode":4}]},{"extras":{"targetNames":[]},"primitives":[{"attributes":{"NORMAL":7,"POSITION":5,"TANGENT":6,"TEXCOORD_0":8},"indices":9,"material":1,"mode":4}]},{"extras":{"targetNames":[]},"primitives":[{"attributes":{"NORMAL":12,"POSITION":10,"TANGENT":11,"TEXCOORD_0":13},"indices":14,"material":2,"mode":4}]},{"extras":{"targetNames":[]},"primitives":[{"attributes":{"NORMAL":17,"POSITION":15,"TANGENT":16,"TEXCOORD_0":18},"indices":19,"material":2,"mode":4}]},{"extras":{"targetNames":[]},"primitives":[{"attributes":{"NORMAL":22,"POSITION":20,"TANGENT":21,"TEXCOORD_0":23},"indices":24,"material":2,"mode":4}]},{"extras":{"targetNames":[]},"primitives":[{"attributes":{"NORMAL":27,"POSITION":25,"TANGENT":26,"TEXCOORD_0":28},"indices":29,"material":3,"mode":4},{"attributes":{"NORMAL":32,"POSITION":30,"TANGENT":31,"TEXCOORD_0":33},"indices":34,"material":4,"mode":4}]},{"extras":{"targetNames":[]},"primitives":[{"attributes":{"NORMAL":37,"POSITION":35,"TANGENT":36,"TEXCOORD_0":38},"indices":39,"material":3,"mode":4},{"attributes":{"NORMAL":42,"POSITION":40,"TANGENT":41,"TEXCOORD_0":43},"indices":44,"material":4,"mode":4}]}],"nodes":[{"children":[1,4,7,10,13,16,21],"extensions":{},"name":"room"},{"children":[2],"extensions":{},"name":"Floor"},{"children":[3],"extensions":{},"name":"CollisionShape3D"},{"extensions":{},"mesh":0,"name":"MeshInstance3D","scale":[10,0.200000002980232,10]},{"children":[5],"extensions":{},"name":"Ceiling","translation":[0,3,0]},{"children":[6],"extensions":{},"name":"CollisionShape3D2","translation":[0,1,0]},{"extensions":{},"mesh":1,"name":"MeshInstance3D2","scale":[10,0.200000002980232,10]},{"children":[8],"extensions":{},"name":"Doorframe left","translation":[5,0,-3]},{"children":[9],"extensions":{},"name":"CollisionShape3D3","translation":[0,2,0]},{"extensions":{},"mesh":2,"name":"MeshInstance3D3"},{"children":[11],"extensions":{},"name":"Doorframe right","translation":[5,0,3]},{"children":[12],"extensions":{},"name":"CollisionShape3D4","translation":[0,2,0]},{"extensions":{},"mesh":3,"name":"MeshInstance3D4"},{"children":[14],"extensions":{},"name":"Doorframe top","translation":[5,3.25,0]},{"children":[15],"extensions":{},"name":"CollisionShape3D5"},{"extensions":{},"mesh":4,"name":"MeshInstance3D5"},{"children":[17,18,19,20],"extensions":{},"name":"ceiling_lamp_01","rotation":[0,-0.70710676908493,0,0.70710676908493],"translation":[0,3.92223000526428,-2.13249087333679]},{"extensions":{},"mesh":5,"name":"model","rotation":[0,0,1,-0.00000007549786],"scale":[0.699999988079071,0.699999988079071,0.699999988079071]},{"extensions":{"KHR_lights_punctual":{"light":0}},"name":"Light","rotation":[0.0000000533851469697311,0.70710676908493,0.70710676908493,-0.00000005338515],"translation":[0,-0.22875200212002,0]},{"extensions":{"KHR_lights_punctual":{"light":1}},"name":"OmniLight3D","translation":[0,-0.43823000788689,0]},{"extensions":{},"name":"AudioStreamPlayer3D"},{"children":[22,23,24,25],"extensions":{},"name":"ceiling_lamp_02","rotation":[0,-0.70710676908493,0,0.70710676908493],"translation":[0,3.92223000526428,2.13189196586609]},{"extensions":{},"mesh":6,"name":"model2","rotation":[0,0,1,-0.00000007549786],"scale":[0.699999988079071,0.699999988079071,0.699999988079071]},{"extensions":{"KHR_lights_punctual":{"light":2}},"name":"Light2","rotation":[0.0000000533851469697311,0.70710676908493,0.70710676908493,-0.00000005338515],"translation":[0,-0.22875200212002,0]},{"extensions":{"KHR_lights_punctual":{"light":3}},"name":"OmniLight3D2","translation":[0,-0.43823000788689,0]},{"extensions":{},"name":"AudioStreamPlayer3D2"}],"samplers":[{"magFilter":9729,"minFilter":9987,"wrapS":10497,"wrapT":10497}],"scene":0,"scenes":[{"nodes":[0]}],"textures":[{"sampler":0,"source":0},{"sampler":0,"source":1},{"sampler":0,"source":2}]}